<mxfile host="app.diagrams.net" modified="2024-03-09T13:40:28.202Z" agent="Mozilla/5.0 (X11; Linux x86_64) AppleWebKit/537.36 (KHTML, like Gecko) Chrome/122.0.0.0 Safari/537.36" etag="zcKcSB2GscIriwyrVFN2" version="24.0.2" type="google">
  <diagram id="4BztmcpxRUM7F06mJRYi" name="Trang-2">
    <mxGraphModel grid="0" page="0" gridSize="10" guides="1" tooltips="1" connect="1" arrows="1" fold="1" pageScale="1" pageWidth="3300" pageHeight="4681" background="#000000" math="0" shadow="0">
      <root>
        <mxCell id="0" />
        <mxCell id="1" parent="0" />
        <mxCell id="wCI12etWdCRgOZ3frAb2-87" style="edgeStyle=orthogonalEdgeStyle;rounded=0;orthogonalLoop=1;jettySize=auto;html=1;exitX=0;exitY=0.5;exitDx=0;exitDy=0;entryX=0.5;entryY=0;entryDx=0;entryDy=0;labelBackgroundColor=none;fontColor=default;strokeColor=#FFFFFF;fillColor=#000000;" edge="1" parent="1" source="wCI12etWdCRgOZ3frAb2-30" target="wCI12etWdCRgOZ3frAb2-32">
          <mxGeometry relative="1" as="geometry" />
        </mxCell>
        <mxCell id="IFNfNDccr4MIiW0sOcJz-44" style="edgeStyle=orthogonalEdgeStyle;rounded=0;orthogonalLoop=1;jettySize=auto;html=1;entryX=0.5;entryY=0;entryDx=0;entryDy=0;labelBackgroundColor=none;strokeColor=#FFFFFF;fontColor=default;fillColor=#000000;" edge="1" parent="1" source="wCI12etWdCRgOZ3frAb2-30" target="wCI12etWdCRgOZ3frAb2-49">
          <mxGeometry relative="1" as="geometry" />
        </mxCell>
        <mxCell id="wCI12etWdCRgOZ3frAb2-30" value="a=0" style="rhombus;whiteSpace=wrap;html=1;shadow=0;fontFamily=Helvetica;fontSize=12;align=center;strokeWidth=1;spacing=6;spacingTop=-4;labelBackgroundColor=none;fillColor=#000000;strokeColor=#FFFFFF;fontColor=#FFFFFF;" vertex="1" parent="1">
          <mxGeometry x="34" y="174" width="100" height="80" as="geometry" />
        </mxCell>
        <mxCell id="wCI12etWdCRgOZ3frAb2-31" style="edgeStyle=orthogonalEdgeStyle;rounded=0;orthogonalLoop=1;jettySize=auto;html=1;exitX=0.5;exitY=1;exitDx=0;exitDy=0;labelBackgroundColor=none;fontColor=default;strokeColor=#FFFFFF;fillColor=#000000;" edge="1" parent="1" source="wCI12etWdCRgOZ3frAb2-32" target="wCI12etWdCRgOZ3frAb2-38">
          <mxGeometry relative="1" as="geometry" />
        </mxCell>
        <mxCell id="wCI12etWdCRgOZ3frAb2-32" value="dt = b*b - 4*a*c" style="rounded=1;whiteSpace=wrap;html=1;fontSize=12;glass=0;strokeWidth=1;shadow=0;labelBackgroundColor=none;fillColor=#000000;strokeColor=#FFFFFF;fontColor=#FFFFFF;" vertex="1" parent="1">
          <mxGeometry x="-256" y="234" width="120" height="40" as="geometry" />
        </mxCell>
        <mxCell id="wCI12etWdCRgOZ3frAb2-33" style="edgeStyle=orthogonalEdgeStyle;rounded=0;orthogonalLoop=1;jettySize=auto;html=1;exitX=0.5;exitY=1;exitDx=0;exitDy=0;entryX=0.5;entryY=0;entryDx=0;entryDy=0;labelBackgroundColor=none;fontColor=default;strokeColor=#FFFFFF;fillColor=#000000;" edge="1" parent="1" source="wCI12etWdCRgOZ3frAb2-34" target="wCI12etWdCRgOZ3frAb2-30">
          <mxGeometry relative="1" as="geometry" />
        </mxCell>
        <mxCell id="wCI12etWdCRgOZ3frAb2-34" value="Ввод float a, float b, float c" style="shape=parallelogram;perimeter=parallelogramPerimeter;whiteSpace=wrap;html=1;fixedSize=1;labelBackgroundColor=none;fillColor=#000000;strokeColor=#FFFFFF;fontColor=#FFFFFF;" vertex="1" parent="1">
          <mxGeometry x="-3" y="88" width="180" height="60" as="geometry" />
        </mxCell>
        <mxCell id="wCI12etWdCRgOZ3frAb2-91" style="edgeStyle=orthogonalEdgeStyle;rounded=0;orthogonalLoop=1;jettySize=auto;html=1;exitX=0.5;exitY=1;exitDx=0;exitDy=0;entryX=0.5;entryY=0;entryDx=0;entryDy=0;labelBackgroundColor=none;fontColor=default;strokeColor=#FFFFFF;fillColor=#000000;" edge="1" parent="1" source="wCI12etWdCRgOZ3frAb2-35" target="wCI12etWdCRgOZ3frAb2-34">
          <mxGeometry relative="1" as="geometry" />
        </mxCell>
        <mxCell id="wCI12etWdCRgOZ3frAb2-35" value="Начано" style="ellipse;whiteSpace=wrap;html=1;labelBackgroundColor=none;fillColor=#000000;strokeColor=#FFFFFF;fontColor=#FFFFFF;" vertex="1" parent="1">
          <mxGeometry x="-8" y="-62" width="190" height="110" as="geometry" />
        </mxCell>
        <mxCell id="wCI12etWdCRgOZ3frAb2-77" style="edgeStyle=orthogonalEdgeStyle;rounded=0;orthogonalLoop=1;jettySize=auto;html=1;exitX=0;exitY=0.5;exitDx=0;exitDy=0;entryX=0.5;entryY=0;entryDx=0;entryDy=0;labelBackgroundColor=none;fontColor=default;strokeColor=#FFFFFF;fillColor=#000000;" edge="1" parent="1" source="wCI12etWdCRgOZ3frAb2-38" target="wCI12etWdCRgOZ3frAb2-72">
          <mxGeometry relative="1" as="geometry" />
        </mxCell>
        <mxCell id="wCI12etWdCRgOZ3frAb2-38" value="dt &amp;gt; 0 ?" style="rhombus;whiteSpace=wrap;html=1;shadow=0;fontFamily=Helvetica;fontSize=12;align=center;strokeWidth=1;spacing=6;spacingTop=-4;labelBackgroundColor=none;fillColor=#000000;strokeColor=#FFFFFF;fontColor=#FFFFFF;" vertex="1" parent="1">
          <mxGeometry x="-246" y="298" width="100" height="80" as="geometry" />
        </mxCell>
        <mxCell id="wCI12etWdCRgOZ3frAb2-43" value="Конец" style="ellipse;whiteSpace=wrap;html=1;labelBackgroundColor=none;fillColor=#000000;strokeColor=#FFFFFF;fontColor=#FFFFFF;" vertex="1" parent="1">
          <mxGeometry x="82" y="774" width="120" height="80" as="geometry" />
        </mxCell>
        <mxCell id="IFNfNDccr4MIiW0sOcJz-57" style="edgeStyle=orthogonalEdgeStyle;rounded=0;orthogonalLoop=1;jettySize=auto;html=1;exitX=0.5;exitY=1;exitDx=0;exitDy=0;labelBackgroundColor=none;strokeColor=#FFFFFF;fontColor=default;fillColor=#000000;" edge="1" parent="1">
          <mxGeometry relative="1" as="geometry">
            <mxPoint x="460" y="719.2361145019531" as="targetPoint" />
            <mxPoint x="460" y="463" as="sourcePoint" />
          </mxGeometry>
        </mxCell>
        <mxCell id="wCI12etWdCRgOZ3frAb2-92" style="edgeStyle=orthogonalEdgeStyle;rounded=0;orthogonalLoop=1;jettySize=auto;html=1;exitX=0;exitY=0.5;exitDx=0;exitDy=0;entryX=0.5;entryY=0;entryDx=0;entryDy=0;labelBackgroundColor=none;fontColor=default;strokeColor=#FFFFFF;fillColor=#000000;" edge="1" parent="1" source="wCI12etWdCRgOZ3frAb2-49" target="wCI12etWdCRgOZ3frAb2-61">
          <mxGeometry relative="1" as="geometry" />
        </mxCell>
        <mxCell id="IFNfNDccr4MIiW0sOcJz-61" style="edgeStyle=orthogonalEdgeStyle;rounded=0;orthogonalLoop=1;jettySize=auto;html=1;entryX=0.5;entryY=0;entryDx=0;entryDy=0;strokeColor=#FFFFFF;" edge="1" parent="1" source="wCI12etWdCRgOZ3frAb2-49" target="wCI12etWdCRgOZ3frAb2-56">
          <mxGeometry relative="1" as="geometry" />
        </mxCell>
        <mxCell id="wCI12etWdCRgOZ3frAb2-49" value="b=0 ?" style="rhombus;whiteSpace=wrap;html=1;shadow=0;fontFamily=Helvetica;fontSize=12;align=center;strokeWidth=1;spacing=6;spacingTop=-4;labelBackgroundColor=none;fillColor=#000000;strokeColor=#FFFFFF;fontColor=#FFFFFF;" vertex="1" parent="1">
          <mxGeometry x="402" y="243" width="100" height="80" as="geometry" />
        </mxCell>
        <mxCell id="wCI12etWdCRgOZ3frAb2-54" value="Нет" style="text;html=1;align=center;verticalAlign=middle;resizable=0;points=[];autosize=1;strokeColor=#FFFFFF;fillColor=#000000;labelBackgroundColor=none;fontColor=#FFFFFF;" vertex="1" parent="1">
          <mxGeometry x="-136" y="180" width="40" height="30" as="geometry" />
        </mxCell>
        <mxCell id="IFNfNDccr4MIiW0sOcJz-53" style="edgeStyle=orthogonalEdgeStyle;rounded=0;orthogonalLoop=1;jettySize=auto;html=1;labelBackgroundColor=none;strokeColor=#FFFFFF;fontColor=default;fillColor=#000000;" edge="1" parent="1" source="wCI12etWdCRgOZ3frAb2-56">
          <mxGeometry relative="1" as="geometry">
            <mxPoint x="459.8925018310547" y="422.5694274902344" as="targetPoint" />
          </mxGeometry>
        </mxCell>
        <mxCell id="IFNfNDccr4MIiW0sOcJz-55" style="edgeStyle=orthogonalEdgeStyle;rounded=0;orthogonalLoop=1;jettySize=auto;html=1;labelBackgroundColor=none;strokeColor=#FFFFFF;fontColor=default;fillColor=#000000;" edge="1" parent="1" source="wCI12etWdCRgOZ3frAb2-56">
          <mxGeometry relative="1" as="geometry">
            <mxPoint x="705.4480438232422" y="420.3471984863281" as="targetPoint" />
          </mxGeometry>
        </mxCell>
        <mxCell id="wCI12etWdCRgOZ3frAb2-56" value="с=0 ?" style="rhombus;whiteSpace=wrap;html=1;shadow=0;fontFamily=Helvetica;fontSize=12;align=center;strokeWidth=1;spacing=6;spacingTop=-4;labelBackgroundColor=none;fillColor=#000000;strokeColor=#FFFFFF;fontColor=#FFFFFF;" vertex="1" parent="1">
          <mxGeometry x="535" y="335" width="100" height="80" as="geometry" />
        </mxCell>
        <mxCell id="IFNfNDccr4MIiW0sOcJz-58" style="edgeStyle=orthogonalEdgeStyle;rounded=0;orthogonalLoop=1;jettySize=auto;html=1;labelBackgroundColor=none;strokeColor=#FFFFFF;fontColor=default;fillColor=#000000;" edge="1" parent="1">
          <mxGeometry relative="1" as="geometry">
            <mxPoint x="700" y="722.5694274902344" as="targetPoint" />
            <mxPoint x="700" y="463" as="sourcePoint" />
          </mxGeometry>
        </mxCell>
        <mxCell id="wCI12etWdCRgOZ3frAb2-60" value="Нет" style="text;html=1;align=center;verticalAlign=middle;resizable=0;points=[];autosize=1;strokeColor=#FFFFFF;fillColor=#000000;labelBackgroundColor=none;fontColor=#FFFFFF;" vertex="1" parent="1">
          <mxGeometry x="338" y="252" width="40" height="30" as="geometry" />
        </mxCell>
        <mxCell id="wCI12etWdCRgOZ3frAb2-66" style="edgeStyle=orthogonalEdgeStyle;rounded=0;orthogonalLoop=1;jettySize=auto;html=1;exitX=0.5;exitY=1;exitDx=0;exitDy=0;entryX=0.5;entryY=0;entryDx=0;entryDy=0;labelBackgroundColor=none;fontColor=default;strokeColor=#FFFFFF;fillColor=#000000;" edge="1" parent="1" source="wCI12etWdCRgOZ3frAb2-61" target="wCI12etWdCRgOZ3frAb2-63">
          <mxGeometry relative="1" as="geometry" />
        </mxCell>
        <mxCell id="wCI12etWdCRgOZ3frAb2-61" value="x1 = - c / b" style="rounded=1;whiteSpace=wrap;html=1;fontSize=12;glass=0;strokeWidth=1;shadow=0;labelBackgroundColor=none;fillColor=#000000;strokeColor=#FFFFFF;fontColor=#FFFFFF;" vertex="1" parent="1">
          <mxGeometry x="182" y="333" width="160" height="40" as="geometry" />
        </mxCell>
        <mxCell id="IFNfNDccr4MIiW0sOcJz-51" style="edgeStyle=orthogonalEdgeStyle;rounded=0;orthogonalLoop=1;jettySize=auto;html=1;exitX=0.5;exitY=1;exitDx=0;exitDy=0;labelBackgroundColor=none;strokeColor=#FFFFFF;fontColor=default;fillColor=#000000;" edge="1" parent="1" source="wCI12etWdCRgOZ3frAb2-63">
          <mxGeometry relative="1" as="geometry">
            <mxPoint x="262" y="725.9028015136719" as="targetPoint" />
          </mxGeometry>
        </mxCell>
        <mxCell id="wCI12etWdCRgOZ3frAb2-63" value="x1" style="shape=parallelogram;perimeter=parallelogramPerimeter;whiteSpace=wrap;html=1;fixedSize=1;labelBackgroundColor=none;fillColor=#000000;strokeColor=#FFFFFF;fontColor=#FFFFFF;" vertex="1" parent="1">
          <mxGeometry x="172" y="433" width="180" height="60" as="geometry" />
        </mxCell>
        <mxCell id="wCI12etWdCRgOZ3frAb2-65" value="Нет" style="text;html=1;align=center;verticalAlign=middle;resizable=0;points=[];autosize=1;strokeColor=#FFFFFF;fillColor=#000000;labelBackgroundColor=none;fontColor=#FFFFFF;" vertex="1" parent="1">
          <mxGeometry x="478" y="338" width="40" height="30" as="geometry" />
        </mxCell>
        <mxCell id="wCI12etWdCRgOZ3frAb2-71" value="Да" style="text;html=1;align=center;verticalAlign=middle;resizable=0;points=[];autosize=1;strokeColor=#FFFFFF;fillColor=#000000;labelBackgroundColor=none;fontColor=#FFFFFF;" vertex="1" parent="1">
          <mxGeometry x="-321" y="298" width="40" height="30" as="geometry" />
        </mxCell>
        <mxCell id="IFNfNDccr4MIiW0sOcJz-17" style="edgeStyle=orthogonalEdgeStyle;rounded=0;orthogonalLoop=1;jettySize=auto;html=1;labelBackgroundColor=none;strokeColor=#FFFFFF;fontColor=default;fillColor=#000000;" edge="1" parent="1" source="wCI12etWdCRgOZ3frAb2-72" target="wCI12etWdCRgOZ3frAb2-81">
          <mxGeometry relative="1" as="geometry" />
        </mxCell>
        <mxCell id="wCI12etWdCRgOZ3frAb2-72" value="Квадратное уравнение имеет два различных решения&lt;br style=&quot;border-color: var(--border-color);&quot;&gt;x1 = (-b + sqrt(dt)) / (2*a)&lt;br style=&quot;border-color: var(--border-color);&quot;&gt;x2 = (-b - sqrt(dt)) / (2*a)" style="rounded=1;whiteSpace=wrap;html=1;fontSize=12;glass=0;strokeWidth=1;shadow=0;labelBackgroundColor=none;fillColor=#000000;strokeColor=#FFFFFF;fontColor=#FFFFFF;" vertex="1" parent="1">
          <mxGeometry x="-524" y="373" width="240" height="120" as="geometry" />
        </mxCell>
        <mxCell id="wCI12etWdCRgOZ3frAb2-73" value="Нет" style="edgeStyle=orthogonalEdgeStyle;rounded=0;html=1;jettySize=auto;orthogonalLoop=1;fontSize=11;endArrow=block;endFill=0;endSize=8;strokeWidth=1;shadow=0;labelBackgroundColor=none;exitX=1;exitY=0.5;exitDx=0;exitDy=0;fontColor=default;strokeColor=#FFFFFF;fillColor=#000000;" edge="1" parent="1">
          <mxGeometry x="-0.3333" y="10" relative="1" as="geometry">
            <mxPoint as="offset" />
            <mxPoint x="-39" y="380" as="targetPoint" />
            <Array as="points">
              <mxPoint x="-39" y="330" />
            </Array>
            <mxPoint x="-149" y="330" as="sourcePoint" />
          </mxGeometry>
        </mxCell>
        <mxCell id="IFNfNDccr4MIiW0sOcJz-15" style="edgeStyle=orthogonalEdgeStyle;rounded=0;orthogonalLoop=1;jettySize=auto;html=1;labelBackgroundColor=none;strokeColor=#FFFFFF;fontColor=default;fillColor=#000000;" edge="1" parent="1" source="wCI12etWdCRgOZ3frAb2-74">
          <mxGeometry relative="1" as="geometry">
            <mxPoint x="-188" y="522" as="targetPoint" />
          </mxGeometry>
        </mxCell>
        <mxCell id="IFNfNDccr4MIiW0sOcJz-16" style="edgeStyle=orthogonalEdgeStyle;rounded=0;orthogonalLoop=1;jettySize=auto;html=1;entryX=0.5;entryY=0;entryDx=0;entryDy=0;labelBackgroundColor=none;strokeColor=#FFFFFF;fontColor=default;fillColor=#000000;" edge="1" parent="1" source="wCI12etWdCRgOZ3frAb2-74">
          <mxGeometry relative="1" as="geometry">
            <mxPoint x="97" y="532" as="targetPoint" />
          </mxGeometry>
        </mxCell>
        <mxCell id="wCI12etWdCRgOZ3frAb2-74" value="dt = 0 ?" style="rhombus;whiteSpace=wrap;html=1;shadow=0;fontFamily=Helvetica;fontSize=12;align=center;strokeWidth=1;spacing=6;spacingTop=-4;labelBackgroundColor=none;fillColor=#000000;strokeColor=#FFFFFF;fontColor=#FFFFFF;" vertex="1" parent="1">
          <mxGeometry x="-90" y="379" width="100" height="80" as="geometry" />
        </mxCell>
        <mxCell id="IFNfNDccr4MIiW0sOcJz-50" style="edgeStyle=orthogonalEdgeStyle;rounded=0;orthogonalLoop=1;jettySize=auto;html=1;labelBackgroundColor=none;strokeColor=#FFFFFF;fontColor=default;fillColor=#000000;" edge="1" parent="1">
          <mxGeometry relative="1" as="geometry">
            <mxPoint x="97" y="724.7916564941406" as="targetPoint" />
            <mxPoint x="97" y="572" as="sourcePoint" />
          </mxGeometry>
        </mxCell>
        <mxCell id="IFNfNDccr4MIiW0sOcJz-49" style="edgeStyle=orthogonalEdgeStyle;rounded=0;orthogonalLoop=1;jettySize=auto;html=1;labelBackgroundColor=none;strokeColor=#FFFFFF;fontColor=default;fillColor=#000000;" edge="1" parent="1">
          <mxGeometry relative="1" as="geometry">
            <mxPoint x="-188" y="725.9028015136719" as="targetPoint" />
            <mxPoint x="-188" y="582" as="sourcePoint" />
          </mxGeometry>
        </mxCell>
        <mxCell id="IFNfNDccr4MIiW0sOcJz-59" style="edgeStyle=orthogonalEdgeStyle;rounded=0;orthogonalLoop=1;jettySize=auto;html=1;labelBackgroundColor=none;strokeColor=#FFFFFF;fontColor=default;fillColor=#000000;" edge="1" parent="1" source="wCI12etWdCRgOZ3frAb2-81">
          <mxGeometry relative="1" as="geometry">
            <mxPoint x="-404" y="726" as="targetPoint" />
          </mxGeometry>
        </mxCell>
        <mxCell id="wCI12etWdCRgOZ3frAb2-81" value="x1, x2" style="shape=parallelogram;perimeter=parallelogramPerimeter;whiteSpace=wrap;html=1;fixedSize=1;labelBackgroundColor=none;fillColor=#000000;strokeColor=#FFFFFF;fontColor=#FFFFFF;" vertex="1" parent="1">
          <mxGeometry x="-494" y="530" width="180" height="60" as="geometry" />
        </mxCell>
        <mxCell id="wCI12etWdCRgOZ3frAb2-93" value="Да" style="text;html=1;align=center;verticalAlign=middle;resizable=0;points=[];autosize=1;strokeColor=#FFFFFF;fillColor=#000000;labelBackgroundColor=none;fontColor=#FFFFFF;" vertex="1" parent="1">
          <mxGeometry x="-149" y="380" width="40" height="30" as="geometry" />
        </mxCell>
        <mxCell id="IFNfNDccr4MIiW0sOcJz-45" value="" style="endArrow=none;html=1;rounded=0;labelBackgroundColor=none;strokeColor=#FFFFFF;fontColor=default;fillColor=#000000;" edge="1" parent="1">
          <mxGeometry width="50" height="50" relative="1" as="geometry">
            <mxPoint x="-410" y="726" as="sourcePoint" />
            <mxPoint x="700" y="720" as="targetPoint" />
          </mxGeometry>
        </mxCell>
        <mxCell id="IFNfNDccr4MIiW0sOcJz-60" value="Да" style="text;html=1;align=center;verticalAlign=middle;resizable=0;points=[];autosize=1;strokeColor=#FFFFFF;fillColor=#000000;labelBackgroundColor=none;fontColor=#FFFFFF;" vertex="1" parent="1">
          <mxGeometry x="661" y="333" width="40" height="30" as="geometry" />
        </mxCell>
        <mxCell id="IFNfNDccr4MIiW0sOcJz-110" value="" style="endArrow=classic;html=1;rounded=0;strokeColor=#FFFFFF;entryX=0.5;entryY=0;entryDx=0;entryDy=0;" edge="1" parent="1" target="wCI12etWdCRgOZ3frAb2-43">
          <mxGeometry width="50" height="50" relative="1" as="geometry">
            <mxPoint x="142" y="727" as="sourcePoint" />
            <mxPoint x="107" y="490" as="targetPoint" />
          </mxGeometry>
        </mxCell>
        <mxCell id="4oQz40yRKbx0BaLhHhTV-1" value="&lt;span style=&quot;color: rgb(255, 255, 255);&quot;&gt;нет решения&lt;/span&gt;" style="shape=parallelogram;perimeter=parallelogramPerimeter;whiteSpace=wrap;html=1;fixedSize=1;fillColor=#000000;strokeColor=#FFFFFF;" vertex="1" parent="1">
          <mxGeometry x="38" y="530" width="120" height="60" as="geometry" />
        </mxCell>
        <mxCell id="4oQz40yRKbx0BaLhHhTV-2" value="&lt;span style=&quot;color: rgb(255, 255, 255);&quot;&gt;нет решения&lt;/span&gt;" style="shape=parallelogram;perimeter=parallelogramPerimeter;whiteSpace=wrap;html=1;fixedSize=1;fillColor=#000000;strokeColor=#FFFFFF;" vertex="1" parent="1">
          <mxGeometry x="405" y="423" width="120" height="60" as="geometry" />
        </mxCell>
        <mxCell id="4oQz40yRKbx0BaLhHhTV-3" value="&lt;span style=&quot;color: rgb(255, 255, 255);&quot;&gt;x - любое&lt;/span&gt;" style="shape=parallelogram;perimeter=parallelogramPerimeter;whiteSpace=wrap;html=1;fixedSize=1;fillColor=#000000;strokeColor=#FFFFFF;" vertex="1" parent="1">
          <mxGeometry x="646" y="423" width="120" height="60" as="geometry" />
        </mxCell>
        <mxCell id="4oQz40yRKbx0BaLhHhTV-4" value="&lt;span style=&quot;color: rgb(255, 255, 255);&quot;&gt;Уравнение имеет двойное решение&amp;nbsp;&lt;/span&gt;&lt;br style=&quot;color: rgb(255, 255, 255); border-color: var(--border-color);&quot;&gt;&lt;span style=&quot;color: rgb(255, 255, 255);&quot;&gt;x = -b/(2*a)&lt;/span&gt;" style="rounded=0;whiteSpace=wrap;html=1;fillColor=#000000;strokeColor=#FFFFFF;" vertex="1" parent="1">
          <mxGeometry x="-250" y="522" width="120" height="60" as="geometry" />
        </mxCell>
      </root>
    </mxGraphModel>
  </diagram>
</mxfile>
